<svg id="svg" version="1.1" xmlns="http://www.w3.org/2000/svg" xmlns:xlink="http://www.w3.org/1999/xlink" width="400" height="400" viewBox="0, 0, 400,400"><g id="svgg"><path id="path0" d="M112.000 123.906 L 100.200 124.011 100.320 136.229 L 100.439 148.447 99.520 149.416 L 98.600 150.386 87.108 150.393 L 75.615 150.400 75.394 151.300 C 75.142 152.328,75.454 212.921,75.901 249.600 L 76.200 274.200 87.966 274.306 C 95.832 274.377,99.910 274.559,100.266 274.855 C 100.689 275.206,100.800 277.736,100.800 287.016 C 100.800 293.461,100.909 299.019,101.043 299.367 C 101.256 299.924,102.666 300.000,112.763 300.000 C 121.156 300.000,124.369 300.129,124.720 300.480 C 125.071 300.831,125.200 304.036,125.200 312.400 C 125.200 320.764,125.329 323.969,125.680 324.320 C 126.031 324.671,129.242 324.800,137.631 324.800 C 147.807 324.800,149.164 324.875,149.651 325.461 C 150.077 325.973,150.245 328.684,150.400 337.561 L 150.600 349.000 162.600 349.000 L 174.600 349.000 174.800 337.561 C 174.955 328.684,175.123 325.973,175.549 325.461 C 176.197 324.681,198.926 324.433,199.400 325.200 C 199.556 325.452,204.112 325.600,211.747 325.600 C 220.801 325.600,224.017 325.726,224.521 326.100 C 225.120 326.545,225.206 327.840,225.297 337.800 L 225.400 349.000 236.800 349.112 C 243.070 349.174,248.605 349.125,249.100 349.005 L 250.000 348.785 250.000 337.454 C 250.000 323.174,248.375 324.800,262.651 324.800 C 270.820 324.800,273.970 324.670,274.320 324.320 C 274.671 323.969,274.800 320.805,274.800 312.582 C 274.800 298.385,273.171 300.000,287.489 300.000 C 297.356 300.000,298.744 299.923,298.957 299.367 C 299.091 299.019,299.200 293.644,299.200 287.422 L 299.200 276.109 300.255 275.055 L 301.309 274.000 312.643 274.000 L 323.976 274.000 324.186 262.300 C 324.659 235.963,324.782 208.842,324.499 193.000 L 324.200 176.200 312.845 176.094 L 301.490 175.987 300.351 174.874 L 299.213 173.761 299.106 162.380 L 299.000 151.000 287.619 150.894 C 272.806 150.755,274.443 152.386,274.306 137.636 L 274.200 126.200 262.400 125.902 C 236.574 125.249,226.019 125.162,225.210 125.594 C 224.445 126.004,224.408 126.497,224.306 137.511 L 224.200 149.000 212.200 149.215 C 205.600 149.333,200.110 149.508,200.000 149.604 C 199.789 149.788,217.368 150.264,237.300 150.614 L 249.200 150.823 249.200 162.595 L 249.200 174.366 237.100 174.599 C 219.285 174.942,152.117 174.887,138.000 174.518 L 125.800 174.200 125.556 160.800 C 125.031 131.984,125.105 125.679,125.974 125.214 C 127.205 124.555,148.415 124.685,149.300 125.357 C 149.938 125.841,150.000 126.909,150.000 137.464 C 150.000 145.934,150.129 149.169,150.480 149.520 C 150.833 149.873,154.251 150.000,163.369 150.000 C 174.714 150.000,175.702 149.947,174.889 149.377 C 174.005 148.758,174.000 148.694,174.000 136.977 L 174.000 125.200 162.624 125.200 C 155.471 125.200,151.155 125.051,151.000 124.800 C 150.844 124.548,146.285 124.396,138.676 124.390 C 132.034 124.385,125.970 124.250,125.200 124.090 C 124.430 123.931,118.490 123.847,112.000 123.906 " stroke="none" fill="#fc1c2c" fill-rule="evenodd"></path><path id="path1" d="M223.867 23.867 C 223.720 24.013,223.600 29.683,223.600 36.467 L 223.600 48.800 211.200 48.800 L 198.800 48.800 198.800 73.800 L 198.800 98.800 161.443 98.800 C 127.747 98.800,124.062 98.862,123.843 99.433 C 123.709 99.781,123.600 105.361,123.600 111.833 L 123.600 123.600 99.080 123.600 C 80.542 123.600,74.443 123.717,74.080 124.080 C 73.728 124.432,73.600 127.787,73.600 136.680 L 73.600 148.800 61.199 148.800 L 48.798 148.800 48.899 212.500 L 49.000 276.200 61.297 276.306 L 73.594 276.412 73.697 301.306 L 73.800 326.200 86.300 326.306 L 98.800 326.411 98.800 338.806 L 98.800 351.200 111.194 351.200 L 123.589 351.200 123.694 363.700 L 123.800 376.200 200.000 376.200 L 276.200 376.200 276.306 363.700 L 276.411 351.200 288.806 351.200 L 301.200 351.200 301.200 338.806 L 301.200 326.411 313.700 326.306 L 326.200 326.200 326.303 301.300 L 326.406 276.400 338.803 276.400 L 351.200 276.400 351.200 212.600 L 351.200 148.800 338.806 148.800 L 326.411 148.800 326.306 136.300 L 326.200 123.800 301.306 123.697 L 276.412 123.594 276.306 111.297 L 276.200 99.000 251.300 98.897 L 226.400 98.794 226.400 87.597 L 226.400 76.400 238.800 76.400 L 251.200 76.400 251.200 50.243 C 251.200 26.760,251.135 24.061,250.567 23.843 C 249.702 23.511,224.200 23.533,223.867 23.867 M138.676 124.390 C 146.285 124.396,150.844 124.548,151.000 124.800 C 151.155 125.051,155.471 125.200,162.624 125.200 L 174.000 125.200 174.000 136.991 L 174.000 148.782 174.947 149.402 C 175.958 150.064,182.824 150.046,212.200 149.303 L 224.200 149.000 224.306 137.511 C 224.408 126.497,224.445 126.004,225.210 125.594 C 226.019 125.162,236.574 125.249,262.400 125.902 L 274.200 126.200 274.306 137.636 C 274.443 152.386,272.806 150.755,287.619 150.894 L 299.000 151.000 299.106 162.380 L 299.213 173.761 300.351 174.874 L 301.490 175.987 312.845 176.094 L 324.200 176.200 324.499 193.000 C 324.782 208.842,324.659 235.963,324.186 262.300 L 323.976 274.000 312.643 274.000 L 301.309 274.000 300.255 275.055 L 299.200 276.109 299.200 287.422 C 299.200 293.644,299.091 299.019,298.957 299.367 C 298.744 299.923,297.356 300.000,287.489 300.000 C 273.171 300.000,274.800 298.385,274.800 312.582 C 274.800 320.805,274.671 323.969,274.320 324.320 C 273.970 324.670,270.820 324.800,262.651 324.800 C 248.375 324.800,250.000 323.174,250.000 337.454 L 250.000 348.785 249.100 349.005 C 248.605 349.125,243.070 349.174,236.800 349.112 L 225.400 349.000 225.297 337.800 C 225.206 327.840,225.120 326.545,224.521 326.100 C 224.017 325.726,220.801 325.600,211.747 325.600 C 204.112 325.600,199.556 325.452,199.400 325.200 C 198.926 324.433,176.197 324.681,175.549 325.461 C 175.123 325.973,174.955 328.684,174.800 337.561 L 174.600 349.000 162.600 349.000 L 150.600 349.000 150.400 337.561 C 150.245 328.684,150.077 325.973,149.651 325.461 C 149.164 324.875,147.807 324.800,137.631 324.800 C 129.242 324.800,126.031 324.671,125.680 324.320 C 125.329 323.969,125.200 320.764,125.200 312.400 C 125.200 304.036,125.071 300.831,124.720 300.480 C 124.369 300.129,121.156 300.000,112.763 300.000 C 102.666 300.000,101.256 299.924,101.043 299.367 C 100.909 299.019,100.800 293.461,100.800 287.016 C 100.800 277.736,100.689 275.206,100.266 274.855 C 99.910 274.559,95.832 274.377,87.966 274.306 L 76.200 274.200 75.901 249.600 C 75.454 212.921,75.142 152.328,75.394 151.300 L 75.615 150.400 87.108 150.393 L 98.600 150.386 99.520 149.416 L 100.439 148.447 100.320 136.229 L 100.200 124.011 112.000 123.906 C 118.490 123.847,124.430 123.931,125.200 124.090 C 125.970 124.250,132.034 124.385,138.676 124.390 " stroke="none" fill="#56140c" fill-rule="evenodd"></path><path id="path2" d="M125.900 125.232 C 125.118 125.688,125.048 132.894,125.556 160.800 L 125.800 174.200 138.000 174.518 C 152.117 174.887,219.285 174.942,237.100 174.599 L 249.200 174.366 249.200 162.595 L 249.200 150.823 237.100 150.604 C 230.445 150.483,208.366 150.296,188.036 150.188 C 161.762 150.048,150.917 149.863,150.536 149.547 C 150.111 149.194,150.000 146.709,150.000 137.495 C 150.000 126.910,149.938 125.841,149.300 125.357 C 148.423 124.691,127.025 124.577,125.900 125.232 " stroke="none" fill="#fc818c" fill-rule="evenodd"></path></g></svg>