<svg id="svg" version="1.1" xmlns="http://www.w3.org/2000/svg" xmlns:xlink="http://www.w3.org/1999/xlink" width="400" height="423.40425531914894" viewBox="0, 0, 400,423.40425531914894"><g id="svgg"><path id="path0" d="M181.401 0.296 C 180.742 0.393,180.070 0.681,179.907 0.936 C 179.705 1.254,179.608 1.212,179.600 0.800 C 179.590 0.326,179.518 0.310,179.254 0.726 C 179.071 1.015,178.219 1.316,177.361 1.395 C 175.222 1.593,174.163 1.860,172.773 2.554 C 172.120 2.879,171.690 2.978,171.817 2.773 C 172.344 1.919,171.062 2.713,169.437 4.247 C 169.176 4.493,168.566 4.820,168.081 4.974 C 167.597 5.128,167.200 5.542,167.200 5.894 C 167.200 6.245,167.091 6.424,166.958 6.291 C 166.494 5.827,163.600 9.381,163.600 10.414 C 163.600 11.017,162.555 12.022,162.248 11.714 C 162.111 11.578,162.000 11.867,162.000 12.357 C 162.000 12.849,161.821 13.137,161.600 13.000 C 161.380 12.864,161.200 13.008,161.200 13.320 C 161.200 13.633,160.750 14.226,160.200 14.639 C 159.650 15.052,159.200 15.707,159.200 16.095 C 159.200 16.483,159.020 16.800,158.800 16.800 C 158.580 16.800,158.400 17.147,158.400 17.571 C 158.400 17.996,158.160 18.582,157.867 18.875 C 157.350 19.393,156.668 21.271,156.618 22.317 C 156.604 22.601,156.348 22.985,156.048 23.170 C 155.748 23.356,155.591 23.753,155.699 24.054 C 155.808 24.354,155.641 25.227,155.329 25.994 C 154.960 26.901,154.908 27.436,155.178 27.526 C 155.460 27.620,155.464 27.906,155.191 28.416 C 154.970 28.829,154.820 29.310,154.858 29.484 C 154.955 29.929,154.327 31.354,153.909 31.636 C 153.717 31.766,153.532 32.248,153.497 32.708 C 153.462 33.168,153.291 33.456,153.117 33.349 C 152.943 33.241,152.800 33.433,152.800 33.776 C 152.800 34.119,152.575 34.403,152.300 34.406 C 151.923 34.411,151.930 34.495,152.330 34.748 C 152.767 35.025,152.763 35.181,152.307 35.642 C 151.674 36.282,151.038 37.644,151.146 38.130 C 151.187 38.311,151.044 38.351,150.829 38.218 C 150.613 38.085,150.077 38.285,149.636 38.662 C 148.507 39.629,147.536 39.677,146.603 38.813 C 146.161 38.404,145.440 38.009,145.000 37.935 C 144.560 37.861,143.891 37.440,143.513 37.000 C 142.986 36.385,142.822 36.339,142.807 36.800 C 142.790 37.333,142.745 37.333,142.400 36.800 C 142.187 36.470,142.009 36.348,142.006 36.529 C 142.003 36.709,141.715 36.573,141.368 36.225 C 141.020 35.877,140.582 35.687,140.395 35.803 C 140.208 35.918,139.942 35.830,139.804 35.607 C 139.666 35.383,139.193 35.200,138.753 35.200 C 138.313 35.200,138.047 35.047,138.163 34.860 C 138.278 34.674,137.864 34.507,137.243 34.489 C 136.621 34.471,135.530 34.102,134.818 33.669 C 133.987 33.164,133.071 32.945,132.262 33.058 C 131.311 33.190,131.148 33.132,131.600 32.823 C 132.154 32.444,130.617 32.169,128.976 32.353 C 128.742 32.379,128.170 32.046,127.705 31.612 C 127.110 31.057,126.800 30.968,126.661 31.312 C 126.509 31.688,126.456 31.685,126.432 31.300 C 126.414 31.025,125.950 30.800,125.400 30.800 C 124.850 30.800,124.400 30.638,124.400 30.440 C 124.400 30.242,122.060 30.107,119.201 30.140 C 116.341 30.173,114.001 30.335,114.001 30.500 C 114.000 30.665,113.460 30.800,112.800 30.800 C 112.140 30.800,111.600 30.980,111.600 31.200 C 111.600 31.420,111.409 31.600,111.176 31.600 C 110.943 31.600,110.864 31.420,111.000 31.200 C 111.371 30.600,110.824 30.719,110.160 31.383 C 109.839 31.704,109.312 31.864,108.988 31.740 C 108.665 31.616,108.400 31.714,108.400 31.957 C 108.400 32.201,107.849 32.400,107.176 32.400 C 106.463 32.400,106.056 32.567,106.200 32.800 C 106.336 33.020,106.167 33.200,105.824 33.200 C 105.481 33.200,105.200 33.392,105.200 33.627 C 105.200 33.872,104.859 33.946,104.400 33.800 C 103.941 33.654,103.600 33.728,103.600 33.973 C 103.600 34.208,103.330 34.400,103.000 34.400 C 102.670 34.400,102.400 34.580,102.400 34.800 C 102.400 35.020,102.149 35.200,101.843 35.200 C 101.536 35.200,101.182 35.470,101.055 35.800 C 100.929 36.130,100.549 36.400,100.213 36.400 C 99.876 36.400,99.600 36.657,99.600 36.971 C 99.600 37.285,99.105 37.931,98.500 38.407 C 97.895 38.883,97.485 39.301,97.589 39.336 C 97.694 39.371,96.927 40.251,95.887 41.292 C 94.846 42.333,94.041 43.348,94.097 43.549 C 94.154 43.749,93.774 44.287,93.253 44.744 C 92.673 45.253,92.400 45.822,92.548 46.209 C 92.688 46.574,92.624 46.738,92.395 46.597 C 92.178 46.463,92.000 46.689,92.000 47.101 C 92.000 47.512,91.640 48.236,91.200 48.708 C 90.760 49.180,90.400 50.024,90.400 50.583 C 90.400 51.142,90.220 51.600,90.000 51.600 C 89.780 51.600,89.629 51.735,89.664 51.900 C 89.698 52.065,89.586 52.523,89.414 52.917 C 89.242 53.312,89.206 53.740,89.335 53.868 C 89.463 53.997,89.305 54.731,88.984 55.500 C 88.663 56.269,88.400 57.326,88.400 57.849 C 88.400 58.372,88.237 58.800,88.038 58.800 C 87.840 58.800,87.670 59.728,87.661 60.863 C 87.651 62.108,87.438 63.056,87.122 63.256 C 86.703 63.522,86.702 63.589,87.114 63.594 C 87.479 63.598,87.520 63.804,87.256 64.300 C 86.790 65.175,87.009 75.847,87.586 80.400 C 87.823 82.270,88.119 84.745,88.245 85.900 C 88.371 87.055,88.637 88.000,88.837 88.000 C 89.037 88.000,89.200 88.889,89.200 89.976 C 89.200 91.063,89.348 92.044,89.528 92.155 C 89.708 92.267,89.840 93.222,89.820 94.279 C 89.801 95.336,89.913 96.295,90.071 96.410 C 90.228 96.526,90.403 97.393,90.458 98.336 C 90.514 99.279,90.704 100.140,90.880 100.249 C 91.056 100.358,91.200 101.157,91.200 102.024 C 91.200 102.891,91.350 103.600,91.534 103.600 C 91.718 103.600,91.908 104.725,91.957 106.100 C 92.008 107.540,92.307 109.002,92.664 109.549 C 93.127 110.259,93.146 110.427,92.741 110.215 C 92.444 110.058,92.650 110.322,93.200 110.800 C 93.750 111.278,93.930 111.537,93.600 111.376 C 93.113 111.138,93.094 111.184,93.500 111.621 C 93.775 111.918,94.000 112.484,94.000 112.880 C 94.000 113.276,94.180 113.600,94.400 113.600 C 94.620 113.600,94.803 114.005,94.806 114.500 C 94.811 115.228,94.886 115.285,95.200 114.800 C 95.522 114.302,95.591 114.336,95.605 115.000 C 95.633 116.269,96.999 120.068,97.314 119.752 C 97.472 119.595,97.600 119.947,97.600 120.533 C 97.600 121.120,97.766 121.600,97.968 121.600 C 98.171 121.600,98.458 122.152,98.606 122.827 C 98.754 123.502,99.127 124.151,99.435 124.269 C 99.743 124.387,99.900 124.638,99.784 124.826 C 99.536 125.226,100.326 126.732,101.237 127.596 C 101.588 127.928,101.790 128.450,101.685 128.756 C 101.570 129.094,101.673 129.202,101.948 129.032 C 102.342 128.789,102.594 129.506,102.455 130.476 C 102.434 130.627,102.773 130.864,103.208 131.003 C 103.644 131.141,104.000 131.602,104.000 132.027 C 104.000 132.452,104.180 132.800,104.400 132.800 C 104.620 132.800,104.800 133.147,104.800 133.571 C 104.800 133.996,105.070 134.613,105.400 134.943 C 105.730 135.273,106.000 135.760,106.000 136.025 C 106.000 136.289,106.388 136.842,106.861 137.253 C 107.335 137.664,107.600 138.000,107.451 138.000 C 107.302 138.000,107.462 138.546,107.807 139.213 C 108.152 139.880,108.580 140.336,108.759 140.225 C 108.938 140.115,108.994 140.496,108.884 141.072 C 108.746 141.793,108.826 142.031,109.142 141.836 C 109.411 141.669,109.600 141.810,109.600 142.176 C 109.600 142.519,109.780 142.800,110.000 142.800 C 110.220 142.800,110.400 143.000,110.400 143.244 C 110.400 143.858,112.090 145.585,112.700 145.593 C 113.129 145.599,113.307 145.961,113.291 146.800 C 113.284 147.192,116.372 149.895,116.584 149.683 C 116.703 149.564,116.800 149.828,116.800 150.269 C 116.800 150.753,117.229 151.267,117.879 151.563 C 118.743 151.957,118.843 152.128,118.379 152.421 C 117.802 152.786,118.320 153.013,119.330 152.837 C 119.511 152.806,119.551 152.956,119.419 153.170 C 119.286 153.384,119.560 153.764,120.026 154.014 C 120.550 154.294,120.805 154.737,120.692 155.168 C 120.546 155.730,120.708 155.830,121.514 155.676 C 122.202 155.545,122.430 155.629,122.236 155.942 C 121.887 156.506,120.537 156.545,120.200 156.000 C 120.064 155.780,118.838 155.597,117.476 155.594 C 115.665 155.589,115.161 155.478,115.600 155.179 C 116.038 154.881,115.660 154.801,114.200 154.881 C 113.100 154.941,111.947 154.830,111.638 154.634 C 111.218 154.367,111.162 154.418,111.415 154.838 C 111.703 155.315,111.652 155.318,111.082 154.855 C 110.713 154.556,109.598 154.289,108.605 154.261 C 107.612 154.234,106.800 154.074,106.800 153.906 C 106.800 153.738,105.889 153.600,104.776 153.600 C 103.407 153.600,102.841 153.458,103.025 153.160 C 103.205 152.869,102.993 152.882,102.400 153.200 C 101.807 153.518,101.595 153.531,101.775 153.240 C 101.958 152.945,101.454 152.800,100.247 152.800 C 99.257 152.800,98.359 152.658,98.252 152.484 C 98.144 152.310,96.754 152.138,95.163 152.102 C 93.572 152.066,92.164 151.876,92.035 151.680 C 91.775 151.285,74.727 151.159,74.971 151.553 C 75.135 151.818,74.755 151.860,70.900 151.997 C 69.525 152.046,68.400 152.247,68.400 152.443 C 68.400 152.639,67.309 152.800,65.976 152.800 C 64.463 152.800,63.646 152.950,63.800 153.200 C 63.954 153.449,63.196 153.600,61.800 153.600 C 60.377 153.600,59.645 153.749,59.805 154.007 C 59.965 154.267,59.514 154.347,58.556 154.228 C 57.730 154.126,56.863 154.163,56.628 154.310 C 56.142 154.614,55.405 154.790,54.100 154.914 C 53.605 154.961,53.200 155.135,53.200 155.300 C 53.200 155.465,52.828 155.600,52.374 155.600 C 51.919 155.600,51.228 155.771,50.837 155.980 C 50.447 156.189,49.379 156.404,48.464 156.458 C 47.549 156.512,46.800 156.701,46.800 156.878 C 46.800 157.055,46.440 157.200,46.000 157.200 C 45.560 157.200,45.200 157.380,45.200 157.600 C 45.200 157.820,45.009 158.000,44.776 158.000 C 44.540 158.000,44.489 157.779,44.661 157.500 C 44.830 157.225,44.487 157.315,43.899 157.700 C 43.310 158.085,42.361 158.400,41.790 158.400 C 41.108 158.400,40.850 158.558,41.038 158.862 C 41.215 159.148,41.148 159.215,40.863 159.039 C 40.609 158.882,39.816 159.060,39.101 159.434 C 36.522 160.783,36.247 160.894,35.033 161.082 C 34.355 161.186,33.740 161.436,33.667 161.636 C 33.593 161.836,33.278 162.000,32.967 162.000 C 32.655 162.000,32.400 162.180,32.400 162.400 C 32.400 162.620,32.265 162.779,32.100 162.753 C 31.335 162.632,30.773 162.833,30.974 163.157 C 31.179 163.490,29.370 164.212,28.700 164.066 C 28.535 164.030,28.400 164.180,28.400 164.400 C 28.400 164.620,28.155 164.800,27.855 164.800 C 27.555 164.800,26.843 165.266,26.274 165.835 C 25.704 166.405,25.071 166.767,24.866 166.641 C 24.661 166.514,23.918 167.083,23.216 167.905 C 22.514 168.727,21.863 169.355,21.770 169.300 C 21.289 169.017,20.800 169.269,20.800 169.800 C 20.800 170.130,20.531 170.400,20.202 170.400 C 19.616 170.400,16.000 173.692,16.000 174.225 C 16.000 174.374,15.179 175.283,14.175 176.245 C 13.093 177.282,12.466 178.183,12.636 178.459 C 12.809 178.737,12.750 178.816,12.489 178.655 C 11.964 178.331,10.732 179.966,11.078 180.527 C 11.213 180.745,11.161 180.825,10.962 180.704 C 10.763 180.583,10.368 180.735,10.084 181.042 C 9.663 181.497,9.663 181.605,10.084 181.625 C 10.368 181.639,10.176 181.820,9.658 182.028 C 9.038 182.276,8.797 182.616,8.954 183.023 C 9.089 183.377,9.022 183.537,8.795 183.397 C 8.440 183.177,8.227 183.706,8.353 184.500 C 8.379 184.665,8.220 184.800,8.000 184.800 C 7.780 184.800,7.600 185.154,7.600 185.586 C 7.600 186.018,7.238 186.566,6.795 186.803 C 6.234 187.103,6.043 187.524,6.164 188.192 C 6.280 188.829,6.176 189.089,5.855 188.966 C 5.589 188.864,5.337 189.100,5.295 189.490 C 5.061 191.653,4.670 193.200,4.356 193.200 C 4.160 193.200,4.000 193.650,4.000 194.200 C 4.000 194.750,3.809 195.200,3.576 195.200 C 3.343 195.200,3.263 195.378,3.397 195.595 C 3.537 195.822,3.377 195.889,3.021 195.753 C 2.586 195.586,2.400 195.757,2.400 196.324 C 2.400 196.769,2.625 197.209,2.900 197.302 C 3.295 197.434,3.290 197.604,2.876 198.105 C 2.587 198.455,2.384 198.979,2.423 199.270 C 2.553 200.232,2.405 200.850,2.090 200.656 C 1.690 200.408,1.752 206.539,2.169 208.496 C 2.370 209.439,2.657 209.898,2.944 209.738 C 3.255 209.564,3.249 209.646,2.926 209.996 C 2.558 210.393,2.581 210.639,3.029 211.087 C 3.347 211.404,3.505 211.830,3.380 212.032 C 3.255 212.235,3.343 212.400,3.576 212.400 C 3.809 212.400,4.000 212.749,4.000 213.176 C 4.000 213.603,4.156 214.049,4.347 214.168 C 4.539 214.286,4.811 215.106,4.952 215.991 C 5.094 216.876,5.387 217.600,5.605 217.600 C 5.822 217.600,6.000 217.886,6.000 218.236 C 6.000 218.586,6.405 219.229,6.900 219.666 C 7.395 220.103,7.530 220.330,7.200 220.170 C 6.870 220.011,7.188 220.504,7.907 221.266 C 8.626 222.029,9.106 222.760,8.975 222.892 C 8.843 223.024,9.290 223.661,9.968 224.309 C 10.645 224.957,11.200 225.664,11.200 225.881 C 11.200 226.505,12.629 227.634,12.997 227.301 C 13.179 227.135,13.198 227.227,13.038 227.504 C 12.853 227.825,13.191 228.259,13.972 228.704 C 14.644 229.087,15.196 229.535,15.197 229.700 C 15.199 229.865,15.680 230.000,16.267 230.000 C 16.853 230.000,17.220 230.114,17.081 230.253 C 16.724 230.610,17.567 232.067,17.983 231.811 C 18.171 231.694,18.231 231.959,18.116 232.399 C 17.999 232.847,18.104 233.200,18.353 233.200 C 18.599 233.200,18.800 233.740,18.800 234.400 C 18.800 235.060,18.980 235.600,19.200 235.600 C 19.420 235.600,19.600 236.061,19.600 236.624 C 19.600 237.204,19.427 237.540,19.200 237.400 C 18.978 237.263,18.799 237.563,18.799 238.076 C 18.798 238.584,18.440 239.585,18.004 240.300 C 17.568 241.015,17.308 241.600,17.426 241.600 C 17.544 241.600,17.092 242.185,16.422 242.900 C 15.752 243.615,15.203 244.425,15.202 244.700 C 15.201 244.975,15.020 245.200,14.800 245.200 C 14.580 245.200,14.400 245.566,14.400 246.013 C 14.400 246.459,14.130 246.929,13.800 247.055 C 13.470 247.182,13.200 247.547,13.200 247.866 C 13.200 248.186,13.020 248.336,12.800 248.200 C 12.580 248.064,12.400 248.233,12.400 248.576 C 12.400 248.919,12.209 249.200,11.976 249.200 C 11.743 249.200,11.664 249.380,11.800 249.600 C 11.936 249.820,11.850 250.000,11.609 250.000 C 11.369 250.000,10.824 250.810,10.400 251.800 C 9.976 252.790,9.521 253.600,9.391 253.600 C 9.260 253.600,9.264 253.420,9.400 253.200 C 9.536 252.980,9.565 252.800,9.464 252.800 C 9.363 252.800,8.900 253.531,8.434 254.425 C 7.968 255.319,7.170 256.444,6.661 256.925 C 6.152 257.406,5.487 258.372,5.183 259.071 C 4.879 259.770,4.488 260.255,4.315 260.148 C 4.142 260.040,4.000 260.218,4.000 260.543 C 4.000 260.868,3.775 261.224,3.500 261.335 C 3.153 261.475,3.180 261.546,3.589 261.568 C 3.995 261.590,3.901 261.794,3.289 262.223 C 2.800 262.565,2.400 263.083,2.400 263.374 C 2.400 263.664,2.130 264.126,1.800 264.400 C 1.470 264.674,1.200 265.326,1.200 265.849 C 1.200 266.372,1.057 266.800,0.882 266.800 C -0.080 266.800,-0.082 284.455,0.880 285.049 C 1.056 285.158,1.200 285.597,1.200 286.024 C 1.200 286.451,1.391 286.800,1.624 286.800 C 1.857 286.800,1.944 286.968,1.817 287.172 C 1.691 287.377,1.770 287.658,1.993 287.796 C 2.217 287.934,2.400 288.397,2.400 288.824 C 2.400 289.251,2.580 289.600,2.800 289.600 C 3.020 289.600,3.200 289.827,3.200 290.104 C 3.200 290.381,3.560 290.832,4.000 291.107 C 4.440 291.382,4.800 291.933,4.800 292.331 C 4.800 292.730,5.430 293.558,6.200 294.172 C 6.970 294.786,7.600 295.569,7.600 295.911 C 7.600 296.253,7.698 296.435,7.818 296.316 C 8.029 296.104,10.270 298.206,11.711 299.966 C 12.102 300.443,12.597 300.726,12.811 300.593 C 13.025 300.461,13.200 300.633,13.200 300.976 C 13.200 301.319,13.470 301.600,13.800 301.600 C 14.130 301.600,14.400 301.791,14.400 302.024 C 14.400 302.257,14.551 302.354,14.735 302.240 C 14.919 302.126,15.503 302.337,16.032 302.708 C 16.561 303.078,17.263 303.421,17.590 303.469 C 17.918 303.517,18.249 303.746,18.326 303.978 C 18.403 304.210,18.822 304.400,19.257 304.400 C 19.692 304.400,19.936 304.580,19.800 304.800 C 19.659 305.028,20.004 305.200,20.600 305.200 C 21.176 305.200,21.542 305.371,21.413 305.579 C 21.281 305.792,22.235 306.077,23.589 306.231 C 24.915 306.381,26.000 306.660,26.000 306.852 C 26.000 307.043,26.731 307.200,27.624 307.200 C 28.604 307.200,29.149 307.358,29.000 307.600 C 28.850 307.842,29.405 308.000,30.403 308.000 C 31.310 308.000,32.356 308.155,32.726 308.344 C 34.007 308.997,36.062 309.232,35.790 308.694 C 35.653 308.422,35.815 308.537,36.150 308.948 C 36.629 309.537,37.062 309.640,38.179 309.430 C 39.071 309.263,39.600 309.320,39.600 309.582 C 39.600 309.817,40.476 310.000,41.600 310.000 C 42.700 310.000,43.600 310.145,43.600 310.322 C 43.600 310.499,44.360 310.688,45.290 310.743 C 46.219 310.798,47.074 310.979,47.190 311.145 C 47.305 311.312,48.299 311.498,49.399 311.560 C 50.498 311.622,51.488 311.812,51.599 311.982 C 51.709 312.152,52.847 312.297,54.126 312.304 C 55.405 312.312,56.554 312.420,56.678 312.545 C 56.803 312.670,57.242 312.592,57.653 312.372 C 58.143 312.109,58.400 312.108,58.400 312.368 C 58.400 313.006,73.884 312.591,74.698 311.931 C 75.174 311.546,75.271 311.538,75.052 311.901 C 74.710 312.471,76.162 312.393,76.690 311.813 C 76.860 311.625,76.747 311.618,76.438 311.798 C 76.052 312.022,75.969 311.973,76.174 311.642 C 76.403 311.272,76.615 311.280,77.097 311.681 C 77.441 311.966,77.783 312.160,77.857 312.111 C 77.931 312.062,78.249 312.121,78.565 312.242 C 78.880 312.363,79.533 312.250,80.017 311.991 C 80.611 311.673,80.808 311.663,80.625 311.960 C 80.471 312.208,80.625 312.400,80.976 312.400 C 81.319 312.400,81.600 312.220,81.600 312.000 C 81.600 311.780,81.791 311.600,82.024 311.600 C 82.257 311.600,82.345 311.766,82.219 311.969 C 82.093 312.174,82.573 312.287,83.295 312.223 C 84.013 312.160,84.564 311.931,84.520 311.713 C 84.476 311.496,84.860 311.399,85.373 311.497 C 85.886 311.595,86.428 311.478,86.577 311.238 C 86.725 310.997,87.207 310.800,87.647 310.800 C 88.087 310.800,88.336 310.620,88.200 310.400 C 88.064 310.180,88.301 310.000,88.727 310.000 C 89.153 310.000,89.724 309.732,89.996 309.404 C 90.268 309.077,90.650 308.907,90.845 309.028 C 91.040 309.149,91.200 309.082,91.200 308.879 C 91.200 308.677,91.650 308.597,92.200 308.702 C 92.784 308.814,93.200 308.707,93.200 308.447 C 93.200 308.201,93.629 308.000,94.154 308.000 C 94.679 308.000,95.611 307.739,96.226 307.420 C 96.840 307.102,97.491 306.932,97.671 307.044 C 97.852 307.156,98.000 307.078,98.000 306.870 C 98.000 306.363,99.537 305.907,100.945 305.997 C 101.682 306.044,101.994 305.915,101.822 305.635 C 101.650 305.357,102.004 305.200,102.800 305.200 C 103.530 305.200,103.945 305.034,103.800 304.800 C 103.656 304.567,104.063 304.400,104.776 304.400 C 105.449 304.400,106.000 304.220,106.000 304.000 C 106.000 303.780,106.439 303.600,106.976 303.600 C 107.513 303.600,108.066 303.417,108.204 303.193 C 108.342 302.970,108.623 302.891,108.828 303.017 C 109.032 303.144,109.200 303.096,109.200 302.911 C 109.200 302.726,110.010 302.335,111.000 302.043 C 111.990 301.751,112.800 301.372,112.800 301.200 C 112.800 301.029,113.475 300.763,114.300 300.609 C 115.125 300.455,116.033 300.136,116.317 299.901 C 116.601 299.666,117.706 299.505,118.772 299.543 C 120.171 299.592,120.774 299.445,120.940 299.012 C 121.083 298.640,121.427 298.512,121.850 298.675 C 122.311 298.852,122.438 298.785,122.242 298.468 C 122.064 298.180,122.218 298.000,122.642 298.000 C 123.559 298.000,126.400 296.732,126.400 296.323 C 126.400 296.145,126.636 296.000,126.925 296.000 C 127.213 296.000,127.798 295.679,128.225 295.286 C 129.363 294.239,132.273 292.811,132.625 293.127 C 132.792 293.277,132.799 293.175,132.641 292.900 C 132.463 292.591,132.591 292.400,132.976 292.400 C 133.319 292.400,133.600 292.220,133.600 292.000 C 133.600 291.780,133.834 291.600,134.120 291.600 C 134.406 291.600,134.854 291.386,135.115 291.125 C 135.713 290.527,137.200 290.280,137.200 290.779 C 137.200 290.985,137.034 291.255,136.831 291.381 C 136.628 291.506,136.343 292.147,136.199 292.805 C 136.055 293.462,135.771 294.000,135.568 294.000 C 135.366 294.000,135.200 294.187,135.200 294.416 C 135.200 294.890,133.555 297.331,133.100 297.533 C 132.935 297.607,132.800 297.922,132.800 298.233 C 132.800 298.545,132.609 298.800,132.376 298.800 C 132.143 298.800,132.081 299.008,132.238 299.262 C 132.417 299.551,132.348 299.615,132.054 299.434 C 131.759 299.251,131.372 299.635,131.008 300.472 C 130.691 301.202,130.424 301.630,130.416 301.422 C 130.407 301.214,129.864 301.889,129.209 302.922 C 128.554 303.955,127.804 304.800,127.542 304.800 C 127.281 304.800,127.180 304.913,127.318 305.051 C 127.456 305.189,127.027 306.089,126.365 307.051 C 125.703 308.013,125.269 308.800,125.401 308.800 C 125.533 308.800,125.207 309.205,124.676 309.700 C 124.145 310.195,123.584 311.005,123.429 311.500 C 123.273 311.995,122.978 312.400,122.773 312.400 C 122.568 312.400,122.437 312.535,122.482 312.700 C 122.643 313.290,121.530 316.000,121.126 316.000 C 120.900 316.000,120.812 316.253,120.930 316.562 C 121.049 316.872,120.798 317.440,120.373 317.824 C 119.948 318.209,119.600 318.659,119.600 318.824 C 119.600 318.988,118.976 320.227,118.213 321.577 C 117.450 322.927,117.000 323.924,117.213 323.792 C 117.426 323.660,117.600 323.743,117.600 323.976 C 117.600 324.209,117.420 324.400,117.200 324.400 C 116.980 324.400,116.800 324.771,116.800 325.224 C 116.800 325.677,116.620 325.936,116.400 325.800 C 116.180 325.664,115.977 325.923,115.950 326.376 C 115.922 326.829,115.862 327.335,115.815 327.500 C 115.662 328.044,115.147 329.390,114.858 330.000 C 114.701 330.330,114.579 331.140,114.587 331.800 C 114.594 332.460,114.474 333.095,114.320 333.211 C 114.166 333.328,114.010 335.535,113.975 338.116 C 113.939 340.697,113.770 342.895,113.600 343.000 C 113.430 343.105,113.167 343.868,113.016 344.696 C 112.865 345.523,112.477 346.609,112.155 347.110 C 111.832 347.610,111.600 348.690,111.638 349.510 C 111.676 350.329,111.435 351.762,111.103 352.693 C 110.720 353.765,110.664 354.287,110.949 354.116 C 111.272 353.923,111.282 354.010,110.983 354.423 C 110.754 354.740,110.511 356.080,110.444 357.400 C 110.376 358.720,110.159 359.860,109.961 359.933 C 109.762 360.007,109.600 361.222,109.600 362.633 C 109.600 364.045,109.430 365.200,109.223 365.200 C 109.016 365.200,108.853 366.100,108.861 367.200 C 108.870 368.300,109.041 369.098,109.241 368.974 C 109.442 368.850,109.382 369.241,109.108 369.843 C 108.712 370.711,108.711 370.970,109.105 371.102 C 109.694 371.298,109.775 372.400,109.200 372.400 C 108.980 372.400,108.800 372.760,108.800 373.200 C 108.800 373.640,108.965 374.000,109.166 374.000 C 109.367 374.000,109.631 375.125,109.752 376.500 C 110.180 381.346,110.481 383.200,110.839 383.200 C 111.037 383.200,111.200 383.391,111.200 383.624 C 111.200 383.857,110.992 383.919,110.738 383.762 C 110.453 383.585,110.385 383.652,110.561 383.937 C 110.896 384.478,111.212 385.694,111.489 387.504 C 111.599 388.221,111.849 388.906,112.044 389.027 C 112.240 389.148,112.400 389.777,112.400 390.424 C 112.400 391.071,112.568 391.600,112.774 391.600 C 112.980 391.600,113.376 392.230,113.654 393.000 C 113.933 393.770,114.324 394.400,114.523 394.400 C 114.722 394.400,114.786 394.658,114.665 394.974 C 114.544 395.290,114.660 395.636,114.922 395.743 C 115.275 395.886,115.268 395.945,114.897 395.968 C 114.414 395.999,114.914 397.381,115.632 398.000 C 115.760 398.110,116.113 398.772,116.417 399.471 C 116.721 400.170,117.139 400.637,117.347 400.509 C 117.554 400.381,117.599 400.478,117.447 400.724 C 117.295 400.970,117.537 401.537,117.985 401.985 C 118.433 402.433,118.800 403.171,118.800 403.624 C 118.800 404.077,118.980 404.336,119.200 404.200 C 119.420 404.064,119.600 404.214,119.600 404.534 C 119.600 404.853,119.870 405.218,120.200 405.345 C 120.530 405.471,120.800 405.751,120.800 405.965 C 120.800 406.180,121.429 407.040,122.198 407.878 C 122.967 408.715,123.597 409.256,123.598 409.079 C 123.599 408.903,124.026 409.218,124.546 409.779 C 125.066 410.341,125.656 410.800,125.858 410.800 C 126.059 410.800,126.476 411.150,126.785 411.579 C 127.093 412.007,127.469 412.281,127.619 412.188 C 127.770 412.095,128.215 412.375,128.609 412.809 C 129.002 413.244,129.577 413.600,129.886 413.600 C 130.194 413.600,130.336 413.780,130.200 414.000 C 130.064 414.220,130.323 414.400,130.776 414.400 C 131.229 414.400,131.600 414.557,131.600 414.749 C 131.600 414.941,132.328 415.214,133.219 415.357 C 134.294 415.529,134.742 415.770,134.553 416.076 C 134.365 416.380,134.490 416.451,134.923 416.285 C 135.283 416.147,135.839 416.296,136.160 416.617 C 136.874 417.331,137.349 417.380,136.965 416.700 C 136.739 416.300,136.790 416.300,137.221 416.700 C 137.518 416.975,138.163 417.200,138.656 417.200 C 139.149 417.200,139.636 417.335,139.739 417.501 C 140.036 417.982,149.812 417.867,149.728 417.384 C 149.685 417.135,150.224 417.034,151.065 417.132 C 152.063 417.248,152.807 417.049,153.621 416.448 C 154.251 415.982,155.034 415.600,155.360 415.600 C 155.686 415.600,156.067 415.415,156.207 415.189 C 156.346 414.964,156.672 414.812,156.930 414.852 C 158.034 415.026,162.301 411.634,161.715 411.049 C 161.579 410.912,161.777 410.800,162.157 410.800 C 162.537 410.800,162.736 410.620,162.600 410.400 C 162.464 410.180,162.644 410.000,163.000 410.000 C 163.356 410.000,163.556 409.853,163.445 409.673 C 163.334 409.493,163.625 409.088,164.092 408.773 C 164.558 408.458,165.494 407.595,166.170 406.856 C 168.541 404.265,169.239 403.600,169.591 403.600 C 169.786 403.600,170.054 403.258,170.187 402.841 C 170.351 402.324,170.679 402.148,171.214 402.288 C 171.683 402.411,172.000 402.293,172.000 401.997 C 172.000 401.131,176.121 401.709,177.215 402.728 C 177.730 403.208,178.313 403.600,178.511 403.600 C 179.001 403.600,180.370 405.280,180.387 405.900 C 180.394 406.175,180.700 406.400,181.067 406.400 C 181.433 406.400,181.617 406.517,181.474 406.659 C 181.331 406.802,181.546 407.207,181.950 407.559 C 182.355 407.912,182.813 408.605,182.970 409.100 C 183.126 409.595,183.422 410.000,183.627 410.000 C 183.832 410.000,184.000 410.254,184.000 410.564 C 184.000 410.875,184.495 411.559,185.100 412.085 C 185.705 412.611,186.243 413.252,186.296 413.510 C 186.410 414.064,191.596 419.319,191.609 418.893 C 191.614 418.732,191.964 419.050,192.386 419.600 C 192.809 420.150,193.390 420.608,193.677 420.618 C 193.965 420.628,194.163 420.828,194.119 421.063 C 194.074 421.297,194.434 421.458,194.919 421.420 C 195.403 421.382,195.980 421.447,196.200 421.564 C 196.420 421.681,196.946 421.831,197.369 421.896 C 197.791 421.962,198.411 422.237,198.745 422.508 C 199.248 422.915,199.292 422.896,199.000 422.400 C 198.701 421.893,198.746 421.880,199.289 422.320 C 200.152 423.020,210.959 423.514,211.356 422.872 C 211.517 422.610,212.126 422.525,212.832 422.666 C 213.719 422.844,214.171 422.719,214.556 422.192 C 214.844 421.799,215.267 421.594,215.497 421.737 C 215.728 421.879,216.024 421.715,216.155 421.372 C 216.287 421.030,216.576 420.861,216.797 420.998 C 217.019 421.135,217.200 421.027,217.200 420.757 C 217.200 420.487,217.317 420.384,217.460 420.527 C 217.604 420.670,217.949 420.475,218.228 420.094 C 218.507 419.712,218.930 419.377,219.168 419.350 C 219.405 419.323,219.791 419.277,220.024 419.250 C 220.257 419.223,220.336 419.020,220.200 418.800 C 220.064 418.580,220.323 418.400,220.776 418.400 C 221.229 418.400,221.600 418.232,221.600 418.027 C 221.600 417.822,221.951 417.543,222.380 417.406 C 222.808 417.270,223.270 416.808,223.406 416.380 C 223.543 415.951,223.900 415.600,224.200 415.600 C 224.500 415.600,225.156 415.015,225.658 414.300 C 226.160 413.585,226.713 412.940,226.886 412.867 C 227.058 412.793,227.200 412.478,227.200 412.167 C 227.200 411.855,227.335 411.621,227.500 411.647 C 228.363 411.784,228.757 411.512,228.872 410.700 C 228.942 410.205,229.410 409.620,229.910 409.401 C 230.411 409.181,231.034 408.519,231.295 407.929 C 231.556 407.340,231.912 406.945,232.085 407.052 C 232.258 407.160,232.400 406.961,232.400 406.611 C 232.400 406.261,232.670 405.871,233.000 405.745 C 233.330 405.618,233.600 405.300,233.600 405.038 C 233.600 404.776,234.224 403.940,234.987 403.181 C 235.750 402.421,236.380 401.455,236.387 401.033 C 236.394 400.612,236.517 400.384,236.660 400.527 C 236.975 400.841,237.969 399.609,237.987 398.884 C 238.006 398.105,239.677 396.000,240.275 396.000 C 240.564 396.000,240.800 395.730,240.800 395.400 C 240.800 395.070,240.999 394.800,241.243 394.800 C 241.486 394.800,241.586 394.539,241.463 394.220 C 241.341 393.902,241.727 393.111,242.320 392.463 C 243.777 390.874,244.477 389.647,244.190 389.184 C 244.060 388.973,244.253 388.800,244.619 388.800 C 245.057 388.800,245.204 388.587,245.047 388.179 C 244.911 387.823,244.978 387.663,245.205 387.803 C 245.422 387.937,245.600 387.666,245.600 387.200 C 245.600 386.734,245.780 386.464,246.000 386.600 C 246.220 386.736,246.400 386.477,246.400 386.024 C 246.400 385.571,246.591 385.200,246.824 385.200 C 247.057 385.200,247.135 385.019,246.998 384.797 C 246.861 384.576,247.031 384.286,247.375 384.154 C 247.719 384.022,248.000 383.665,248.000 383.360 C 248.000 382.531,249.339 379.600,249.718 379.600 C 249.899 379.600,249.945 379.435,249.820 379.232 C 249.695 379.030,249.819 378.618,250.096 378.317 C 251.037 377.294,251.533 376.122,251.812 374.259 C 251.965 373.236,252.250 372.400,252.445 372.400 C 252.640 372.400,252.800 371.939,252.800 371.376 C 252.800 370.796,252.973 370.460,253.200 370.600 C 253.427 370.740,253.600 370.404,253.600 369.824 C 253.600 369.261,253.801 368.800,254.047 368.800 C 254.307 368.800,254.414 368.384,254.302 367.800 C 254.197 367.250,254.236 366.800,254.390 366.800 C 254.543 366.800,254.698 366.046,254.735 365.124 C 254.771 364.201,254.954 363.346,255.142 363.224 C 255.331 363.101,255.638 362.280,255.826 361.400 C 256.168 359.792,256.218 359.425,256.466 356.739 C 256.540 355.935,256.729 355.357,256.886 355.454 C 257.043 355.551,257.150 352.113,257.123 347.815 C 257.095 343.517,256.957 340.000,256.815 340.000 C 256.556 340.000,256.277 337.575,256.296 335.500 C 256.302 334.895,256.148 334.400,255.953 334.400 C 255.759 334.400,255.600 333.421,255.600 332.224 C 255.600 331.027,255.420 329.936,255.200 329.800 C 254.980 329.664,254.800 327.954,254.800 326.000 C 254.800 324.046,254.664 322.363,254.497 322.260 C 253.963 321.930,254.645 313.295,255.250 312.721 C 255.954 312.054,257.200 311.838,257.200 312.382 C 257.200 312.612,257.605 312.803,258.100 312.806 C 258.828 312.811,258.885 312.886,258.400 313.200 C 257.923 313.508,257.913 313.589,258.353 313.594 C 259.030 313.601,260.799 315.592,260.800 316.347 C 260.800 316.840,261.847 318.238,264.028 320.656 C 264.452 321.127,264.800 321.698,264.800 321.925 C 264.800 322.151,265.520 323.064,266.400 323.953 C 267.280 324.842,268.000 325.756,268.000 325.984 C 268.000 326.213,268.281 326.400,268.624 326.400 C 268.967 326.400,269.156 326.548,269.044 326.729 C 268.779 327.157,270.237 328.400,271.005 328.400 C 271.332 328.400,271.600 328.552,271.600 328.739 C 271.600 328.925,271.960 329.493,272.400 330.000 C 272.840 330.507,273.200 330.777,273.200 330.600 C 273.200 330.423,273.557 330.710,273.993 331.239 C 275.477 333.039,276.250 333.707,277.325 334.117 C 277.724 334.270,277.939 334.576,277.802 334.797 C 277.665 335.019,277.839 335.200,278.189 335.200 C 278.539 335.200,278.925 335.461,279.048 335.780 C 279.170 336.100,280.065 336.664,281.035 337.035 C 282.006 337.405,282.800 337.826,282.800 337.969 C 282.800 338.113,283.189 338.259,283.664 338.295 C 284.139 338.331,284.634 338.504,284.764 338.680 C 284.894 338.856,285.270 339.058,285.600 339.130 C 285.930 339.201,286.580 339.615,287.045 340.048 C 287.510 340.482,288.050 340.799,288.245 340.753 C 288.851 340.610,290.804 341.270,290.626 341.558 C 290.533 341.708,290.930 341.869,291.506 341.917 C 292.083 341.965,292.690 342.223,292.856 342.490 C 293.021 342.758,293.278 342.856,293.426 342.707 C 293.574 342.559,293.967 342.710,294.299 343.042 C 294.631 343.374,295.150 343.551,295.452 343.436 C 295.753 343.320,296.000 343.399,296.000 343.613 C 296.000 343.826,296.641 344.000,297.424 344.000 C 298.271 344.000,298.747 344.162,298.600 344.400 C 298.453 344.638,298.921 344.800,299.753 344.800 C 300.523 344.800,301.264 344.980,301.400 345.200 C 301.536 345.420,302.256 345.600,303.000 345.600 C 303.744 345.600,304.449 345.755,304.566 345.945 C 304.683 346.134,306.207 346.269,307.952 346.245 C 309.696 346.220,311.034 346.346,310.923 346.525 C 310.813 346.703,314.205 346.770,318.461 346.672 C 322.718 346.575,328.045 346.459,330.300 346.414 C 332.555 346.369,334.400 346.168,334.400 345.966 C 334.400 345.765,334.994 345.600,335.720 345.600 C 336.446 345.600,337.282 345.375,337.579 345.100 C 338.010 344.700,338.061 344.700,337.835 345.100 C 337.502 345.690,338.238 345.786,338.600 345.200 C 338.736 344.980,339.477 344.800,340.247 344.800 C 341.079 344.800,341.547 344.638,341.400 344.400 C 341.254 344.164,341.696 343.999,342.476 343.997 C 343.204 343.996,345.122 343.546,346.738 342.997 C 348.354 342.449,349.929 342.000,350.238 342.000 C 350.547 342.000,350.800 341.719,350.800 341.376 C 350.800 341.033,350.988 340.869,351.218 341.011 C 351.447 341.153,351.897 341.051,352.218 340.785 C 352.538 340.520,352.800 340.433,352.800 340.593 C 352.800 340.754,353.295 340.371,353.900 339.742 C 354.505 339.114,355.495 338.345,356.099 338.033 C 356.704 337.721,357.124 337.391,357.033 337.299 C 356.876 337.143,357.201 336.737,359.319 334.447 C 359.804 333.924,359.975 333.619,359.700 333.771 C 359.425 333.923,359.200 333.942,359.200 333.814 C 359.200 333.685,359.650 333.409,360.200 333.200 C 360.812 332.967,361.200 332.506,361.200 332.010 C 361.200 331.564,361.560 330.840,362.000 330.400 C 362.440 329.960,362.705 329.600,362.590 329.600 C 362.474 329.600,362.629 329.105,362.935 328.500 C 363.240 327.895,363.415 327.191,363.324 326.937 C 363.233 326.682,363.347 326.356,363.579 326.213 C 363.810 326.070,364.000 325.434,364.000 324.800 C 364.000 324.166,364.165 323.545,364.367 323.420 C 364.871 323.109,364.793 315.466,364.283 315.138 C 364.059 314.994,363.892 314.322,363.911 313.645 C 363.930 312.968,363.817 312.334,363.660 312.237 C 363.502 312.139,363.407 310.066,363.450 307.630 C 363.492 305.193,363.382 303.200,363.205 303.200 C 363.029 303.200,362.815 302.480,362.731 301.600 C 362.620 300.431,362.728 300.000,363.132 300.000 C 363.439 300.000,363.591 299.753,363.473 299.446 C 363.127 298.545,367.038 295.868,368.700 295.867 C 368.975 295.867,369.119 295.785,369.019 295.686 C 368.716 295.382,369.902 294.400,370.571 294.400 C 370.917 294.400,371.200 294.220,371.200 294.000 C 371.200 293.780,371.541 293.600,371.957 293.600 C 372.374 293.600,372.818 293.330,372.945 293.000 C 373.071 292.670,373.436 292.400,373.754 292.400 C 374.073 292.400,374.397 292.210,374.474 291.978 C 374.551 291.746,374.921 291.511,375.296 291.456 C 375.670 291.401,376.102 291.231,376.255 291.078 C 376.408 290.925,376.785 290.800,377.093 290.800 C 377.401 290.800,378.316 290.170,379.127 289.401 C 379.937 288.631,380.880 287.910,381.222 287.799 C 381.563 287.687,382.360 286.778,382.992 285.778 C 383.624 284.778,384.335 283.844,384.571 283.703 C 384.807 283.562,384.755 283.796,384.456 284.223 C 384.156 284.650,384.481 284.370,385.178 283.600 C 385.874 282.830,386.725 281.615,387.068 280.900 C 387.411 280.185,387.845 279.600,388.033 279.600 C 388.221 279.600,388.273 279.335,388.149 279.010 C 388.024 278.686,388.191 278.152,388.519 277.824 C 388.891 277.452,389.064 276.692,388.977 275.802 C 388.897 274.970,388.998 274.475,389.220 274.612 C 389.429 274.741,389.600 274.487,389.600 274.047 C 389.600 273.607,389.780 273.136,390.000 273.000 C 390.220 272.864,390.400 272.403,390.400 271.976 C 390.400 271.549,390.568 271.200,390.773 271.200 C 390.979 271.200,391.131 270.643,391.111 269.962 C 391.092 269.281,391.251 268.606,391.465 268.462 C 391.680 268.318,391.882 267.570,391.914 266.800 C 391.947 266.030,392.088 264.090,392.227 262.489 C 392.390 260.610,392.325 259.392,392.044 259.052 C 391.803 258.763,391.721 258.413,391.859 258.274 C 392.221 257.912,392.359 254.778,392.003 254.998 C 391.840 255.099,391.783 254.600,391.875 253.890 C 392.052 252.531,391.383 248.683,390.765 247.505 C 390.564 247.123,390.400 246.268,390.400 245.605 C 390.400 244.942,390.220 244.400,390.000 244.400 C 389.780 244.400,389.600 243.860,389.600 243.200 C 389.600 242.540,389.409 242.000,389.176 242.000 C 388.943 242.000,388.861 241.825,388.993 241.611 C 389.125 241.398,388.952 240.793,388.608 240.268 C 388.245 239.715,388.098 239.009,388.259 238.591 C 388.450 238.094,388.390 237.959,388.068 238.158 C 387.757 238.350,387.600 238.103,387.600 237.424 C 387.600 236.861,387.420 236.400,387.200 236.400 C 386.980 236.400,386.797 236.085,386.794 235.700 C 386.789 235.102,386.731 235.087,386.400 235.600 C 386.069 236.113,386.011 236.098,386.006 235.500 C 386.003 235.115,385.826 234.800,385.613 234.800 C 385.399 234.800,385.340 234.500,385.481 234.134 C 385.640 233.720,385.577 233.567,385.313 233.730 C 385.073 233.879,384.914 233.691,384.945 233.296 C 384.975 232.913,384.812 232.633,384.583 232.672 C 384.354 232.712,384.140 232.395,384.108 231.968 C 384.039 231.062,383.018 229.916,382.626 230.307 C 382.479 230.455,382.476 230.266,382.622 229.888 C 382.773 229.493,382.697 229.200,382.443 229.200 C 382.199 229.200,382.000 228.919,382.000 228.576 C 382.000 228.233,381.836 228.054,381.635 228.179 C 381.434 228.303,381.030 227.864,380.737 227.202 C 380.444 226.541,379.979 226.000,379.702 226.000 C 379.426 226.000,379.200 225.730,379.200 225.400 C 379.200 225.070,378.855 224.455,378.433 224.033 C 378.012 223.612,377.745 223.188,377.841 223.093 C 377.936 222.997,377.284 222.412,376.390 221.793 C 375.220 220.983,374.911 220.576,375.283 220.340 C 375.675 220.092,375.643 220.011,375.152 220.006 C 374.795 220.003,374.081 219.384,373.565 218.630 C 373.048 217.877,372.485 217.347,372.313 217.454 C 372.141 217.560,372.000 217.379,372.000 217.051 C 372.000 216.722,371.640 216.340,371.200 216.200 C 370.760 216.060,370.400 215.778,370.400 215.573 C 370.400 215.368,370.130 215.200,369.800 215.200 C 369.470 215.200,369.200 214.990,369.200 214.733 C 369.200 214.477,369.088 214.379,368.950 214.516 C 368.813 214.654,368.349 214.369,367.920 213.883 C 367.490 213.397,367.261 213.270,367.410 213.600 C 367.558 213.930,367.148 213.620,366.496 212.910 C 365.845 212.201,365.229 211.704,365.127 211.806 C 365.025 211.908,364.426 211.454,363.796 210.796 C 363.166 210.138,362.403 209.600,362.102 209.600 C 361.800 209.600,361.640 209.458,361.748 209.285 C 361.855 209.112,361.370 208.735,360.671 208.449 C 358.304 207.479,356.601 206.602,356.306 206.200 C 356.127 205.956,356.010 206.007,356.006 206.329 C 356.002 206.725,355.844 206.701,355.372 206.229 C 355.027 205.884,354.307 205.491,353.772 205.357 C 353.237 205.223,352.800 204.953,352.800 204.757 C 352.800 204.560,352.665 204.430,352.500 204.466 C 351.948 204.586,350.000 203.917,350.000 203.607 C 350.000 203.438,349.415 203.162,348.700 202.994 C 347.985 202.826,347.310 202.666,347.200 202.638 C 347.090 202.610,346.730 202.415,346.400 202.204 C 346.070 201.994,345.620 201.799,345.400 201.771 C 345.180 201.744,344.764 201.694,344.476 201.661 C 344.188 201.627,344.044 201.453,344.155 201.272 C 344.267 201.092,343.827 201.023,343.179 201.118 C 342.476 201.221,342.000 201.111,342.000 200.845 C 342.000 200.600,341.730 200.400,341.400 200.400 C 341.070 200.400,340.800 200.245,340.800 200.055 C 340.800 199.865,340.363 199.758,339.828 199.817 C 339.280 199.877,338.762 199.678,338.641 199.362 C 338.504 199.006,337.825 198.800,336.789 198.800 C 335.652 198.800,335.240 198.659,335.439 198.337 C 335.634 198.021,335.456 197.944,334.877 198.096 C 334.362 198.230,333.828 198.068,333.515 197.682 C 333.232 197.332,333.180 197.152,333.400 197.281 C 333.888 197.568,334.863 196.596,334.476 196.209 C 334.324 196.058,334.380 195.970,334.600 196.014 C 335.449 196.185,336.036 195.983,335.800 195.600 C 335.580 195.244,336.093 195.030,336.886 195.148 C 337.043 195.171,337.057 194.893,336.918 194.530 C 336.760 194.118,336.824 193.968,337.088 194.131 C 337.321 194.275,338.027 193.896,338.656 193.290 C 340.597 191.417,341.768 190.538,341.439 191.200 C 341.275 191.530,341.434 191.440,341.793 191.000 C 342.151 190.560,342.723 190.257,343.062 190.327 C 343.418 190.400,343.568 190.272,343.417 190.027 C 343.271 189.792,343.368 189.600,343.631 189.600 C 343.893 189.600,344.534 189.141,345.054 188.579 C 345.574 188.018,346.000 187.698,346.000 187.868 C 346.000 188.039,346.282 187.775,346.627 187.282 C 346.977 186.783,347.464 186.506,347.727 186.657 C 347.987 186.806,348.074 186.788,347.919 186.617 C 347.521 186.175,348.514 185.287,349.752 184.976 C 350.328 184.832,350.800 184.491,350.800 184.219 C 350.800 183.562,352.002 182.523,353.000 182.318 C 353.440 182.227,353.755 181.938,353.700 181.676 C 353.645 181.414,353.870 181.200,354.200 181.200 C 354.530 181.200,354.800 181.020,354.800 180.800 C 354.800 180.580,355.045 180.400,355.344 180.400 C 355.643 180.400,356.218 179.961,356.621 179.424 C 357.024 178.887,357.501 178.539,357.680 178.649 C 357.859 178.760,358.114 178.569,358.246 178.225 C 358.378 177.881,358.781 177.597,359.143 177.594 C 359.713 177.589,359.721 177.537,359.200 177.200 C 358.687 176.869,358.702 176.811,359.300 176.806 C 359.685 176.803,360.000 176.609,360.000 176.376 C 360.000 176.143,360.180 176.064,360.400 176.200 C 360.620 176.336,360.800 176.257,360.800 176.024 C 360.800 175.791,361.100 175.600,361.467 175.600 C 361.833 175.600,362.038 175.505,361.922 175.388 C 361.662 175.129,365.519 171.200,366.033 171.200 C 366.235 171.200,366.400 170.969,366.400 170.686 C 366.400 170.404,366.895 169.880,367.500 169.521 C 368.784 168.762,370.641 167.200,370.261 167.200 C 370.118 167.200,370.360 166.840,370.800 166.400 C 371.240 165.960,371.754 165.600,371.942 165.600 C 372.474 165.600,374.398 163.121,374.163 162.740 C 374.047 162.553,374.143 162.400,374.376 162.400 C 374.842 162.400,376.381 160.978,376.432 160.500 C 376.471 160.136,378.000 158.673,378.000 159.000 C 378.000 159.127,378.253 158.999,378.562 158.716 C 378.871 158.432,379.096 158.087,379.062 157.948 C 379.028 157.810,379.495 157.233,380.100 156.667 C 380.705 156.101,381.200 155.516,381.200 155.366 C 381.200 155.216,381.695 154.646,382.300 154.100 C 382.905 153.553,383.147 153.245,382.838 153.415 C 382.465 153.620,382.372 153.569,382.562 153.262 C 382.719 153.008,383.087 152.800,383.381 152.800 C 383.674 152.800,384.022 152.521,384.153 152.179 C 384.288 151.827,384.222 151.663,384.000 151.800 C 383.779 151.937,383.712 151.773,383.846 151.423 C 383.977 151.083,384.225 150.892,384.397 150.998 C 384.794 151.244,385.735 150.126,385.860 149.260 C 385.913 148.897,386.326 148.353,386.778 148.051 C 387.230 147.749,387.600 147.216,387.600 146.866 C 387.600 146.516,388.095 145.805,388.700 145.286 C 389.305 144.767,389.575 144.456,389.300 144.595 C 388.634 144.931,388.664 144.479,389.352 143.790 C 389.656 143.487,390.026 143.359,390.174 143.507 C 390.321 143.655,390.324 143.468,390.180 143.091 C 390.012 142.653,390.148 142.318,390.558 142.161 C 390.911 142.025,391.200 141.664,391.200 141.357 C 391.200 141.051,391.391 140.800,391.624 140.800 C 391.857 140.800,391.936 140.620,391.800 140.400 C 391.664 140.180,391.788 139.997,392.076 139.994 C 392.480 139.989,392.488 139.916,392.109 139.676 C 391.748 139.446,391.827 139.213,392.409 138.794 C 392.844 138.480,393.200 137.893,393.200 137.488 C 393.200 137.084,393.378 136.863,393.595 136.997 C 393.816 137.134,393.893 136.985,393.768 136.661 C 393.646 136.342,393.741 135.960,393.979 135.813 C 394.218 135.665,394.309 135.376,394.181 135.170 C 394.054 134.963,394.231 134.686,394.575 134.554 C 394.942 134.413,395.200 133.838,395.200 133.157 C 395.200 132.521,395.336 132.000,395.502 132.000 C 395.669 132.000,396.040 131.415,396.329 130.700 C 396.617 129.985,397.027 129.078,397.240 128.684 C 397.453 128.290,397.529 127.809,397.410 127.616 C 397.290 127.423,397.482 126.975,397.837 126.620 C 398.267 126.190,398.396 125.637,398.224 124.955 C 398.058 124.294,398.115 124.024,398.384 124.190 C 398.638 124.347,398.800 123.962,398.800 123.200 C 398.800 122.514,398.935 122.036,399.100 122.138 C 400.280 122.865,400.090 105.292,398.905 104.020 C 398.412 103.491,397.893 102.686,397.751 102.229 C 397.608 101.773,397.291 101.268,397.046 101.106 C 396.742 100.906,396.774 100.810,397.144 100.806 C 397.478 100.802,397.323 100.479,396.744 99.970 C 396.225 99.513,396.070 99.265,396.400 99.420 C 396.730 99.574,396.325 99.125,395.500 98.421 C 394.675 97.717,394.000 96.962,394.000 96.742 C 394.000 95.954,392.850 95.217,391.207 94.955 C 390.078 94.774,389.708 94.578,390.068 94.350 C 390.432 94.119,390.253 94.010,389.500 94.006 C 388.895 94.003,388.400 93.820,388.400 93.600 C 388.400 93.380,387.860 93.200,387.200 93.200 C 386.540 93.200,386.000 93.036,386.000 92.835 C 386.000 92.635,385.550 92.520,385.000 92.580 C 384.450 92.641,384.000 92.524,384.000 92.321 C 384.000 92.119,383.835 92.055,383.632 92.180 C 383.430 92.305,382.993 92.136,382.661 91.804 C 382.329 91.472,381.404 91.200,380.605 91.200 C 379.745 91.200,379.253 91.038,379.398 90.803 C 379.539 90.576,379.239 90.439,378.700 90.483 C 378.181 90.526,377.190 90.327,376.498 90.041 C 375.807 89.754,375.007 89.603,374.720 89.705 C 374.434 89.807,373.698 89.637,373.085 89.327 C 372.361 88.961,371.211 88.829,369.807 88.949 C 368.618 89.051,367.590 88.984,367.522 88.799 C 367.455 88.615,366.410 88.422,365.200 88.371 C 362.141 88.243,361.226 87.320,361.782 84.923 C 362.002 83.975,362.321 83.200,362.491 83.200 C 362.661 83.200,362.800 82.468,362.800 81.574 C 362.800 80.679,362.995 79.583,363.234 79.137 C 363.472 78.692,363.769 76.981,363.893 75.337 C 364.032 73.506,364.249 72.550,364.454 72.873 C 364.660 73.198,364.790 72.673,364.794 71.500 C 364.797 70.455,364.955 69.600,365.146 69.600 C 365.336 69.600,365.502 67.710,365.515 65.400 C 365.528 63.082,365.373 61.200,365.169 61.200 C 364.966 61.200,364.800 60.120,364.800 58.800 C 364.800 57.467,364.622 56.400,364.400 56.400 C 364.180 56.400,364.000 56.061,364.000 55.646 C 364.000 54.012,362.676 50.815,361.897 50.567 C 361.464 50.430,360.083 49.258,358.827 47.963 C 357.338 46.427,356.103 45.521,355.273 45.355 C 354.573 45.215,354.000 44.942,354.000 44.750 C 354.000 44.558,353.475 44.400,352.833 44.400 C 352.192 44.400,351.607 44.230,351.533 44.023 C 351.460 43.815,350.366 43.590,349.101 43.523 C 347.837 43.455,346.802 43.306,346.801 43.191 C 346.799 42.794,341.398 42.884,340.900 43.290 C 340.545 43.580,340.398 43.539,340.394 43.149 C 340.389 42.747,340.306 42.728,340.085 43.076 C 339.906 43.358,338.604 43.587,336.891 43.637 C 335.301 43.683,334.000 43.874,334.000 44.061 C 334.000 44.247,333.865 44.379,333.700 44.353 C 332.329 44.136,328.798 44.472,329.000 44.800 C 329.151 45.044,328.559 45.200,327.487 45.200 C 326.519 45.200,324.844 45.468,323.764 45.796 C 322.684 46.123,321.305 46.393,320.700 46.396 C 320.095 46.398,319.600 46.541,319.600 46.713 C 319.600 47.039,316.023 48.238,315.500 48.087 C 315.335 48.039,315.200 48.163,315.200 48.363 C 315.200 48.562,314.840 48.631,314.400 48.516 C 313.953 48.399,313.600 48.504,313.600 48.753 C 313.600 48.999,313.060 49.200,312.400 49.200 C 311.740 49.200,311.200 49.380,311.200 49.600 C 311.200 49.820,310.840 50.000,310.400 50.000 C 309.960 50.000,309.600 50.180,309.600 50.400 C 309.600 50.620,309.276 50.800,308.880 50.800 C 308.000 50.800,306.007 51.692,306.003 52.087 C 306.001 52.246,305.730 52.271,305.400 52.145 C 305.060 52.014,304.800 52.135,304.800 52.424 C 304.800 52.704,304.682 52.815,304.537 52.670 C 304.392 52.525,304.032 52.607,303.737 52.852 C 303.442 53.097,303.200 53.173,303.200 53.020 C 303.200 52.868,302.915 53.027,302.568 53.375 C 302.220 53.723,301.742 53.888,301.506 53.742 C 301.262 53.591,301.192 53.663,301.344 53.909 C 301.495 54.154,301.217 54.458,300.706 54.607 C 299.069 55.085,297.600 55.790,297.600 56.098 C 297.600 56.264,297.229 56.400,296.776 56.400 C 296.323 56.400,296.064 56.580,296.200 56.800 C 296.336 57.020,296.066 57.200,295.600 57.200 C 295.134 57.200,294.849 57.355,294.965 57.544 C 295.082 57.733,294.463 58.211,293.589 58.605 C 292.715 58.999,292.000 59.445,292.000 59.597 C 292.000 59.748,291.513 60.094,290.917 60.365 C 290.322 60.636,289.589 61.208,289.290 61.636 C 288.990 62.063,288.607 62.328,288.437 62.223 C 288.268 62.118,286.850 63.265,285.286 64.771 C 283.722 66.277,282.343 67.410,282.221 67.288 C 282.100 67.166,282.000 67.307,282.000 67.600 C 282.000 67.893,281.893 68.026,281.762 67.896 C 281.632 67.765,280.957 68.320,280.262 69.129 C 279.568 69.938,278.685 70.835,278.300 71.123 C 277.915 71.410,277.600 71.905,277.600 72.223 C 277.600 72.540,277.300 72.800,276.933 72.800 C 276.567 72.800,276.381 72.914,276.520 73.053 C 276.659 73.192,275.879 74.181,274.786 75.251 C 273.694 76.321,272.800 77.388,272.800 77.622 C 272.800 77.856,272.629 77.942,272.421 77.813 C 272.212 77.684,272.113 77.948,272.200 78.400 C 272.287 78.852,272.231 79.143,272.075 79.046 C 271.680 78.802,270.475 79.736,270.325 80.404 C 270.256 80.707,269.618 81.554,268.906 82.285 C 268.194 83.017,267.499 84.063,267.361 84.611 C 267.224 85.159,266.592 85.914,265.958 86.289 C 265.323 86.663,264.834 87.157,264.871 87.385 C 264.993 88.137,263.883 90.000,263.312 90.000 C 263.005 90.000,262.865 90.181,263.002 90.403 C 263.139 90.624,262.978 90.910,262.644 91.039 C 262.310 91.167,261.659 92.051,261.198 93.003 C 260.737 93.956,260.101 94.950,259.784 95.213 C 259.468 95.476,259.310 95.855,259.434 96.055 C 259.558 96.256,259.429 96.370,259.148 96.310 C 258.867 96.249,258.628 96.419,258.618 96.687 C 258.608 96.955,258.285 97.542,257.900 97.992 C 257.515 98.441,257.200 98.972,257.200 99.171 C 257.200 99.370,257.034 99.593,256.830 99.667 C 256.627 99.740,256.402 100.070,256.330 100.400 C 256.259 100.730,255.882 101.237,255.493 101.527 C 255.105 101.817,254.890 102.222,255.017 102.427 C 255.144 102.632,255.057 102.800,254.824 102.800 C 254.591 102.800,254.400 103.051,254.400 103.357 C 254.400 103.664,254.119 104.022,253.775 104.154 C 253.431 104.286,253.250 104.557,253.372 104.755 C 253.495 104.954,253.326 105.219,252.998 105.346 C 252.669 105.472,252.400 105.851,252.400 106.187 C 252.400 106.524,252.220 106.800,252.000 106.800 C 251.780 106.800,251.600 107.081,251.600 107.424 C 251.600 107.767,251.420 107.936,251.200 107.800 C 250.980 107.664,250.800 107.756,250.800 108.005 C 250.800 108.254,250.538 108.719,250.217 109.040 C 249.896 109.361,249.747 109.917,249.885 110.277 C 250.053 110.715,249.981 110.835,249.668 110.642 C 249.411 110.483,249.200 110.543,249.200 110.776 C 249.200 111.537,248.610 111.216,248.138 110.197 C 247.788 109.443,247.788 109.199,248.138 109.194 C 248.396 109.190,248.335 109.017,248.000 108.800 C 247.639 108.567,247.590 108.410,247.877 108.406 C 248.296 108.401,248.369 94.654,248.056 74.656 C 248.039 73.587,247.835 72.483,247.602 72.203 C 247.370 71.922,247.159 70.997,247.134 70.146 C 247.109 69.296,246.951 68.420,246.782 68.200 C 246.614 67.980,246.418 67.170,246.347 66.400 C 246.276 65.630,246.095 64.909,245.945 64.799 C 245.795 64.688,245.626 63.698,245.570 62.599 C 245.514 61.499,245.362 60.420,245.234 60.200 C 245.105 59.980,244.980 59.350,244.956 58.800 C 244.932 58.250,244.760 57.260,244.575 56.600 C 244.389 55.940,244.283 55.101,244.338 54.735 C 244.393 54.370,244.250 53.954,244.019 53.812 C 243.789 53.669,243.600 53.023,243.600 52.376 C 243.600 51.729,243.420 51.200,243.200 51.200 C 242.980 51.200,242.800 50.495,242.800 49.633 C 242.800 48.772,242.618 48.006,242.396 47.932 C 242.174 47.858,241.914 47.018,241.820 46.065 C 241.725 45.112,241.353 43.883,240.993 43.334 C 240.634 42.785,240.440 42.073,240.563 41.753 C 240.686 41.432,240.532 41.072,240.221 40.953 C 239.638 40.729,238.637 38.549,238.749 37.748 C 238.784 37.500,238.450 37.202,238.006 37.086 C 237.513 36.957,237.200 36.541,237.200 36.014 C 237.200 35.540,237.020 35.264,236.800 35.400 C 236.580 35.536,236.400 35.367,236.400 35.024 C 236.400 34.681,236.209 34.400,235.976 34.400 C 235.743 34.400,235.670 34.210,235.813 33.979 C 235.956 33.747,235.685 33.221,235.210 32.809 C 234.736 32.397,234.319 31.912,234.284 31.730 C 234.164 31.102,233.020 30.000,232.487 30.000 C 232.193 30.000,232.058 29.829,232.188 29.620 C 232.317 29.411,232.057 29.045,231.611 28.806 C 231.165 28.567,230.800 28.108,230.800 27.786 C 230.800 27.247,230.376 27.052,229.746 27.300 C 229.606 27.355,229.340 26.991,229.155 26.491 C 228.971 25.991,228.500 25.464,228.110 25.319 C 227.719 25.174,227.130 24.754,226.800 24.385 C 226.470 24.016,225.765 23.577,225.234 23.409 C 224.703 23.241,223.856 22.721,223.353 22.252 C 221.789 20.795,221.248 20.400,220.817 20.400 C 220.588 20.400,220.400 20.241,220.400 20.047 C 220.400 19.852,220.040 19.599,219.600 19.484 C 219.160 19.369,218.800 18.994,218.800 18.650 C 218.800 18.257,218.576 18.111,218.195 18.257 C 217.758 18.425,217.661 18.306,217.845 17.828 C 217.984 17.465,217.941 17.218,217.749 17.281 C 217.293 17.429,215.370 16.071,215.500 15.692 C 215.555 15.532,215.465 15.396,215.300 15.392 C 215.135 15.387,213.836 14.262,212.414 12.892 C 210.992 11.521,209.676 10.400,209.490 10.400 C 209.305 10.400,209.229 10.265,209.322 10.100 C 209.416 9.935,208.616 8.937,207.546 7.883 C 206.476 6.829,205.600 6.098,205.600 6.259 C 205.600 6.421,205.317 6.204,204.970 5.776 C 204.624 5.349,204.455 5.225,204.594 5.500 C 205.086 6.471,204.128 5.986,203.597 4.995 C 203.222 4.293,202.840 4.060,202.330 4.222 C 201.811 4.387,201.591 4.243,201.568 3.727 C 201.551 3.327,201.450 3.214,201.344 3.475 C 201.092 4.091,199.600 2.867,199.600 2.044 C 199.600 1.727,199.491 1.576,199.357 1.709 C 199.224 1.843,198.769 1.629,198.346 1.235 C 197.259 0.223,186.107 -0.396,181.401 0.296 " stroke="none" fill="#9a26f8" fill-rule="evenodd"></path><path id="path1" d="M118.105 30.287 C 118.714 30.379,119.614 30.377,120.105 30.282 C 120.597 30.187,120.100 30.111,119.000 30.114 C 117.900 30.117,117.497 30.195,118.105 30.287 M104.655 33.400 C 104.529 33.730,104.599 34.000,104.813 34.000 C 105.026 34.000,105.200 33.833,105.200 33.629 C 105.200 33.425,105.515 33.176,105.900 33.076 C 106.452 32.931,106.419 32.883,105.743 32.846 C 105.271 32.821,104.782 33.070,104.655 33.400 M240.459 42.000 C 240.441 42.330,240.690 42.949,241.013 43.376 C 241.525 44.054,241.600 44.066,241.600 43.476 C 241.600 43.104,241.433 42.800,241.229 42.800 C 241.025 42.800,240.776 42.485,240.676 42.100 C 240.548 41.610,240.483 41.580,240.459 42.000 M359.631 48.700 C 360.296 49.579,361.265 50.400,361.637 50.400 C 361.793 50.400,361.417 49.860,360.800 49.200 C 359.592 47.907,358.763 47.552,359.631 48.700 M242.800 50.600 C 242.800 50.930,242.980 51.200,243.200 51.200 C 243.420 51.200,243.600 50.930,243.600 50.600 C 243.600 50.270,243.420 50.000,243.200 50.000 C 242.980 50.000,242.800 50.270,242.800 50.600 M283.062 66.331 C 282.698 66.734,282.400 67.211,282.400 67.393 C 282.400 67.574,282.760 67.307,283.200 66.800 C 283.640 66.293,284.000 65.815,284.000 65.739 C 284.000 65.439,283.695 65.632,283.062 66.331 M275.400 74.000 C 275.002 74.440,274.844 74.800,275.049 74.800 C 275.254 74.800,275.730 74.440,276.107 74.000 C 276.484 73.560,276.642 73.200,276.458 73.200 C 276.274 73.200,275.798 73.560,275.400 74.000 M271.900 78.157 C 271.042 78.808,271.014 79.067,271.800 79.067 C 272.130 79.067,272.312 78.978,272.203 78.870 C 272.095 78.762,272.207 78.432,272.452 78.137 C 273.012 77.462,272.805 77.470,271.900 78.157 M263.618 89.166 C 263.373 89.625,263.339 90.000,263.543 90.000 C 263.954 90.000,264.522 88.788,264.242 88.508 C 264.144 88.411,263.864 88.707,263.618 89.166 M394.770 97.732 C 395.789 98.854,396.008 98.993,395.987 98.500 C 395.981 98.335,395.486 97.854,394.887 97.432 L 393.800 96.664 394.770 97.732 M397.600 101.900 C 397.600 102.091,397.861 102.596,398.180 103.024 C 398.740 103.773,398.752 103.768,398.532 102.894 C 398.304 101.991,397.600 101.240,397.600 101.900 M95.200 115.376 C 95.200 115.913,95.347 116.444,95.528 116.555 C 95.708 116.667,95.777 116.227,95.682 115.579 C 95.472 114.149,95.200 114.035,95.200 115.376 M107.618 139.400 C 107.603 140.401,108.349 141.012,108.883 140.438 C 109.212 140.085,109.227 139.980,108.925 140.150 C 108.663 140.297,108.264 140.098,108.037 139.708 C 107.810 139.319,107.622 139.180,107.618 139.400 M387.892 145.842 C 387.731 146.002,387.600 146.409,387.600 146.747 C 387.600 147.197,387.718 147.242,388.045 146.915 C 388.290 146.670,388.421 146.263,388.337 146.010 C 388.252 145.757,388.052 145.681,387.892 145.842 M109.800 154.289 C 110.240 154.398,110.829 154.672,111.109 154.900 C 111.493 155.211,111.556 155.151,111.366 154.657 C 111.213 154.257,110.700 154.018,110.057 154.046 C 109.223 154.083,109.169 154.134,109.800 154.289 M35.827 160.359 C 35.380 160.534,35.228 160.770,35.468 160.918 C 35.696 161.059,36.224 160.916,36.641 160.600 C 37.458 159.982,37.077 159.869,35.827 160.359 M351.362 183.262 L 350.600 184.124 351.700 183.416 C 352.834 182.686,353.049 182.400,352.462 182.400 C 352.276 182.400,351.781 182.788,351.362 183.262 M342.000 200.810 C 342.000 200.975,342.530 201.187,343.179 201.282 C 343.827 201.377,344.280 201.329,344.185 201.175 C 343.938 200.775,342.000 200.451,342.000 200.810 M374.800 220.554 C 374.800 220.639,375.250 221.003,375.800 221.363 C 376.935 222.107,377.101 221.958,376.171 221.029 C 375.598 220.455,374.800 220.179,374.800 220.554 M8.000 222.000 C 8.235 222.440,8.630 222.800,8.876 222.800 C 9.122 222.800,8.998 222.440,8.600 222.000 C 8.202 221.560,7.808 221.200,7.724 221.200 C 7.640 221.200,7.765 221.560,8.000 222.000 M7.883 296.250 C 7.764 296.369,8.027 296.827,8.467 297.267 C 9.502 298.302,9.742 298.060,8.815 296.917 C 8.421 296.431,8.002 296.131,7.883 296.250 M112.400 345.400 C 112.400 345.950,112.469 346.400,112.553 346.400 C 112.638 346.400,112.793 345.950,112.898 345.400 C 113.003 344.850,112.934 344.400,112.745 344.400 C 112.555 344.400,112.400 344.850,112.400 345.400 M110.994 351.629 C 110.618 353.340,110.929 353.441,111.450 351.776 C 111.687 351.019,111.742 350.400,111.572 350.400 C 111.402 350.400,111.142 350.953,110.994 351.629 M108.800 371.800 C 108.800 372.130,108.980 372.400,109.200 372.400 C 109.420 372.400,109.600 372.130,109.600 371.800 C 109.600 371.470,109.420 371.200,109.200 371.200 C 108.980 371.200,108.800 371.470,108.800 371.800 M238.473 397.687 C 237.886 398.274,237.862 398.800,238.424 398.800 C 238.657 398.800,238.745 398.635,238.621 398.434 C 238.497 398.233,238.621 397.988,238.898 397.889 C 239.174 397.790,239.298 397.598,239.173 397.461 C 239.049 397.325,238.734 397.426,238.473 397.687 M229.200 409.800 C 228.917 410.141,228.776 410.509,228.886 410.619 C 228.996 410.729,229.317 410.541,229.600 410.200 C 229.883 409.859,230.024 409.491,229.914 409.381 C 229.804 409.271,229.483 409.459,229.200 409.800 " stroke="none" fill="#9a26f8" fill-rule="evenodd"></path></g></svg>